# Blender 4.0.1
# www.blender.org
o Torch
v -5.000000 0.032822 -0.129308
v -5.000000 -0.074123 -0.116553
v -5.000000 -0.181069 -0.103798
v -5.000000 0.237727 -0.121281
v -4.971716 -0.184101 -0.092481
v -4.883129 0.225197 -0.074521
v -4.960000 -0.191421 -0.065161
v -4.834720 0.194949 0.038367
v -4.971716 -0.198742 -0.037840
v -4.883129 0.164701 0.151256
v -5.000000 -0.201774 -0.026524
v -5.000000 0.152171 0.198016
v -5.028284 -0.198742 -0.037840
v -5.116871 0.164701 0.151256
v -5.040000 -0.191421 -0.065161
v -5.165280 0.194949 0.038367
v -5.028284 -0.184101 -0.092481
v -5.116871 0.225197 -0.074521
v -5.000000 0.150120 -0.180700
v -4.858579 0.134959 -0.124117
v -4.915147 0.023725 -0.095358
v -4.943431 -0.080188 -0.093920
v -4.800000 0.098356 0.012485
v -4.880000 0.001764 -0.013397
v -4.920000 -0.094829 -0.039279
v -4.858579 0.061754 0.149088
v -4.915147 -0.020198 0.068565
v -4.943431 -0.109470 0.015362
v -5.000000 0.046593 0.205670
v -5.000000 -0.029295 0.102514
v -5.000000 -0.115534 0.037995
v -5.141421 0.061754 0.149088
v -5.084853 -0.020198 0.068565
v -5.056569 -0.109470 0.015362
v -5.200000 0.098356 0.012485
v -5.120000 0.001764 -0.013397
v -5.080000 -0.094829 -0.039279
v -5.141421 0.134959 -0.124117
v -5.084853 0.023725 -0.095358
v -5.056569 -0.080188 -0.093920
v -4.858579 0.231551 -0.098235
v -5.000000 0.246713 -0.154818
v -4.800000 0.194949 0.038367
v -4.858579 0.158346 0.174970
v -5.000000 0.143185 0.231552
v -5.141421 0.158346 0.174970
v -5.200000 0.194949 0.038367
v -5.141421 0.231551 -0.098235
v -4.883129 0.188808 -0.084272
v -5.000000 0.201337 -0.131032
v -4.834720 0.158560 0.028617
v -4.883129 0.128311 0.141505
v -5.000000 0.115782 0.188265
v -5.116871 0.128311 0.141505
v -5.165280 0.158560 0.028617
v -5.116871 0.188808 -0.084272
vn 0.3590 -0.5591 0.7474
vn -0.8666 -0.4277 0.2570
vn 0.3827 0.2391 -0.8924
vn 0.3077 -0.7664 0.5638
vn -0.7430 -0.4945 -0.4511
vn 0.9239 0.0990 -0.3696
vn -0.3077 -0.7664 0.5638
vn -0.8666 -0.2419 -0.4364
vn 0.9239 -0.0990 0.3696
vn -0.3590 -0.5591 0.7474
vn 0.3827 -0.2391 0.8924
vn -0.3077 -0.3818 -0.8715
vn -0.3827 -0.2391 0.8924
vn -0.7430 -0.6538 0.1434
vn -0.3590 -0.1105 -0.9268
vn -0.9239 -0.0990 0.3696
vn -0.9239 0.0990 -0.3696
vn -0.3827 0.2391 -0.8924
vn -0.0000 -0.9659 -0.2588
vn 0.8666 -0.4277 0.2570
vn 0.7430 -0.6538 0.1434
vn 0.8666 -0.2419 -0.4364
vn 0.7430 -0.4945 -0.4511
vn 0.3590 -0.1105 -0.9268
vn 0.3077 -0.3818 -0.8715
vn -0.0000 0.9659 0.2588
vt 0.625000 0.625000
vt 0.625000 0.750000
vt 0.500000 0.750000
vt 0.500000 0.625000
vt 0.375000 0.500000
vt 0.375000 0.625000
vt 0.250000 0.625000
vt 0.250000 0.500000
vt 1.000000 0.875000
vt 1.000000 1.000000
vt 0.875000 1.000000
vt 0.875000 0.875000
vt 0.625000 0.875000
vt 0.500000 0.875000
vt 0.250000 0.750000
vt 0.250000 0.875000
vt 0.125000 0.875000
vt 0.125000 0.750000
vt 0.750000 1.000000
vt 0.750000 0.875000
vt 0.375000 0.875000
vt 0.375000 0.750000
vt 0.125000 0.625000
vt 0.625000 1.000000
vt 0.125000 0.500000
vt 0.500000 1.000000
vt 0.500000 0.500000
vt 0.000000 0.875000
vt 0.000000 0.750000
vt 0.375000 1.000000
vt 0.000000 0.625000
vt 0.250000 1.000000
vt 0.250000 0.448336
vt 0.109755 0.390245
vt 0.000000 0.500000
vt 0.125000 1.000000
vt 0.625000 0.500000
vt 0.000000 1.000000
vt 0.750000 0.490000
vt 0.919706 0.419706
vt 0.990000 0.250000
vt 0.919706 0.080294
vt 0.750000 0.010000
vt 0.580294 0.080294
vt 0.510000 0.250000
vt 0.580294 0.419706
vt 0.750000 0.500000
vt 0.750000 0.625000
vt 0.750000 0.750000
vt 0.875000 0.500000
vt 0.875000 0.625000
vt 0.875000 0.750000
vt 1.000000 0.500000
vt 1.000000 0.625000
vt 1.000000 0.750000
vt 0.390245 0.390245
vt 0.419706 0.419706
vt 0.250000 0.490000
vt 0.448336 0.250000
vt 0.490000 0.250000
vt 0.390245 0.109755
vt 0.419706 0.080294
vt 0.250000 0.051664
vt 0.250000 0.010000
vt 0.109755 0.109755
vt 0.080294 0.080294
vt 0.051664 0.250000
vt 0.010000 0.250000
vt 0.080294 0.419706
s 0
f 28/1/1 27/2/1 30/3/1 31/4/1
f 13/5/2 34/6/2 37/7/2 15/8/2
f 19/9/3 42/10/3 41/11/3 20/12/3
f 27/2/4 26/13/4 29/14/4 30/3/4
f 36/15/5 35/16/5 38/17/5 39/18/5
f 20/12/6 41/11/6 43/19/6 23/20/6
f 30/3/7 29/14/7 32/21/7 33/22/7
f 37/7/8 36/15/8 39/18/8 40/23/8
f 23/20/9 43/19/9 44/24/9 26/13/9
f 31/4/10 30/3/10 33/22/10 34/6/10
f 15/8/8 37/7/8 40/23/8 17/25/8
f 26/13/11 44/24/11 45/26/11 29/14/11
f 11/27/10 31/4/10 34/6/10 13/5/10
f 39/18/12 38/17/12 19/28/12 1/29/12
f 29/14/13 45/26/13 46/30/13 32/21/13
f 33/22/14 32/21/14 35/16/14 36/15/14
f 40/23/15 39/18/15 1/29/15 2/31/15
f 32/21/16 46/30/16 47/32/16 35/16/16
f 4/33/11 18/34/11 56/34/11 50/33/11
f 17/25/15 40/23/15 2/31/15 3/35/15
f 35/16/17 47/32/17 48/36/17 38/17/17
f 9/37/1 28/1/1 31/4/1 11/27/1
f 34/6/2 33/22/2 36/15/2 37/7/2
f 38/17/18 48/36/18 42/38/18 19/28/18
f 3/39/19 5/40/19 7/41/19 9/42/19 11/43/19 13/44/19 15/45/19 17/46/19
f 7/47/20 25/48/20 28/1/20 9/37/20
f 25/48/20 24/49/20 27/2/20 28/1/20
f 24/49/21 23/20/21 26/13/21 27/2/21
f 5/50/22 22/51/22 25/48/22 7/47/22
f 22/51/22 21/52/22 24/49/22 25/48/22
f 21/52/23 20/12/23 23/20/23 24/49/23
f 3/53/24 2/54/24 22/51/24 5/50/24
f 2/54/24 1/55/24 21/52/24 22/51/24
f 1/55/25 19/9/25 20/12/25 21/52/25
f 4/33/26 6/56/26 41/57/26 42/58/26
f 6/56/26 8/59/26 43/60/26 41/57/26
f 8/59/26 10/61/26 44/62/26 43/60/26
f 10/61/26 12/63/26 45/64/26 44/62/26
f 12/63/26 14/65/26 46/66/26 45/64/26
f 14/65/26 16/67/26 47/68/26 46/66/26
f 16/67/26 18/34/26 48/69/26 47/68/26
f 18/34/26 4/33/26 42/58/26 48/69/26
f 49/56/26 50/33/26 56/34/26 55/67/26 54/65/26 53/63/26 52/61/26 51/59/26
f 16/67/6 14/65/6 54/65/6 55/67/6
f 12/63/18 10/61/18 52/61/18 53/63/18
f 8/59/16 6/56/16 49/56/16 51/59/16
f 18/34/9 16/67/9 55/67/9 56/34/9
f 14/65/3 12/63/3 53/63/3 54/65/3
f 10/61/17 8/59/17 51/59/17 52/61/17
f 6/56/13 4/33/13 50/33/13 49/56/13
o TorchHolder
v -5.000000 -0.010964 0.192189
v -5.282843 -0.010964 0.075032
v -5.400000 -0.074964 -0.197811
v -5.282843 -0.074964 0.075032
v -5.000000 -0.074964 0.192189
v -4.717157 -0.074964 0.075032
v -4.600000 -0.074964 -0.197811
v -5.400000 -0.010964 -0.197811
v -4.717157 -0.010964 0.075032
v -4.600000 -0.010964 -0.197811
v -5.000000 -0.010964 0.146780
v -5.250733 -0.010964 0.042922
v -5.354590 -0.074964 -0.197811
v -5.250733 -0.074964 0.042922
v -5.000000 -0.074964 0.146780
v -4.749267 -0.074964 0.042922
v -4.645410 -0.074964 -0.197811
v -5.354590 -0.010964 -0.197811
v -4.749267 -0.010964 0.042922
v -4.645410 -0.010964 -0.197811
vn 0.3827 -0.0000 0.9239
vn -0.9189 -0.0000 0.3946
vn 0.9189 -0.0000 0.3946
vn -0.3827 -0.0000 0.9239
vn -0.3827 -0.0000 -0.9239
vn 0.9182 -0.0000 -0.3961
vn -0.9182 -0.0000 -0.3961
vn 0.3827 -0.0000 -0.9239
vn -0.0000 1.0000 -0.0000
vn -0.0000 -1.0000 -0.0000
vn -0.0000 -0.0000 -1.0000
vt 0.000000 0.000000
s 0
f 62/70/27 65/70/27 57/70/27 61/70/27
f 60/70/28 58/70/28 64/70/28 59/70/28
f 63/70/29 66/70/29 65/70/29 62/70/29
f 61/70/30 57/70/30 58/70/30 60/70/30
f 72/70/31 71/70/31 67/70/31 75/70/31
f 70/70/32 69/70/32 74/70/32 68/70/32
f 73/70/33 72/70/33 75/70/33 76/70/33
f 71/70/34 70/70/34 68/70/34 67/70/34
f 64/70/35 58/70/35 68/70/35 74/70/35
f 61/70/36 60/70/36 70/70/36 71/70/36
f 59/70/37 64/70/37 74/70/37 69/70/37
f 65/70/35 66/70/35 76/70/35 75/70/35
f 57/70/35 65/70/35 75/70/35 67/70/35
f 62/70/36 61/70/36 71/70/36 72/70/36
f 58/70/35 57/70/35 67/70/35 68/70/35
f 63/70/36 62/70/36 72/70/36 73/70/36
f 66/70/37 63/70/37 73/70/37 76/70/37
f 60/70/36 59/70/36 69/70/36 70/70/36
